<svg width="458" height="487" viewBox="0 0 458 487" fill="none" xmlns="http://www.w3.org/2000/svg">
<path d="M96.391 187.974L93.2429 184.825C92.1036 183.686 90.4246 183.386 88.9256 183.986C88.8956 183.986 88.8956 183.986 88.8656 184.016C87.3965 184.615 86.4071 186.055 86.4071 187.644V192.113C86.4071 194.272 84.6382 196.042 82.4795 196.042H71.2663C69.1077 196.042 67.3388 194.272 67.3388 192.113V187.644C67.3388 186.055 66.3494 184.615 64.8803 184.016C64.8503 184.016 64.8503 184.016 64.8203 183.986C63.3512 183.386 61.6422 183.686 60.5029 184.825L57.3549 187.974C55.8258 189.504 53.3373 189.504 51.8082 187.974L43.8631 180.027C42.334 178.498 42.334 176.009 43.8631 174.479L47.0112 171.33C48.1505 170.191 48.4503 168.511 47.8507 167.012C47.8507 166.982 47.8507 166.982 47.8207 166.952C47.2211 165.482 45.7819 164.493 44.1929 164.493H39.7256C37.567 164.493 35.798 162.723 35.798 160.564V149.348C35.798 147.189 37.567 145.419 39.7256 145.419H44.1929C45.7819 145.419 47.2211 144.43 47.8207 142.96C47.8207 142.93 47.8207 142.93 47.8507 142.9C48.4503 141.431 48.1505 139.721 47.0112 138.582L43.8631 135.433C42.334 133.903 42.334 131.414 43.8631 129.885L51.8082 121.937C53.3373 120.408 55.8258 120.408 57.3549 121.937L60.5029 125.086C61.6422 126.226 63.3212 126.526 64.8203 125.926C64.8503 125.926 64.8503 125.926 64.8803 125.896C66.3494 125.296 67.3388 123.857 67.3388 122.267V117.859C67.3388 115.7 69.1077 113.93 71.2663 113.93H82.4795C84.6382 113.93 86.4071 115.7 86.4071 117.859V122.327C86.4071 123.917 87.3965 125.356 88.8656 125.956C88.8956 125.956 88.8956 125.956 88.9256 125.986C90.3947 126.586 92.1036 126.286 93.2429 125.146L96.391 121.997C97.9201 120.468 100.409 120.468 101.938 121.997L109.883 129.945C111.412 131.474 111.412 133.963 109.883 135.493L106.735 138.642C105.595 139.781 105.296 141.461 105.895 142.96C105.895 142.99 105.895 142.99 105.925 143.02C106.525 144.49 107.964 145.479 109.553 145.479H114.02C116.179 145.479 117.948 147.249 117.948 149.408V160.624C117.948 162.783 116.179 164.553 114.02 164.553H109.553C107.964 164.553 106.525 165.542 105.925 167.012C105.925 167.042 105.925 167.042 105.895 167.072C105.296 168.541 105.595 170.251 106.735 171.39L109.883 174.539C111.412 176.068 111.412 178.558 109.883 180.087L101.938 187.974C100.409 189.504 97.9201 189.504 96.391 187.974ZM88.3259 143.56C82.0298 137.262 71.776 137.262 65.4799 143.56C59.1837 149.858 59.1837 160.114 65.4799 166.412C71.776 172.71 82.0298 172.71 88.3259 166.412C94.6221 160.084 94.6221 149.858 88.3259 143.56Z" fill="#DAE4FA"/>
<path opacity="0.36" d="M76.9028 178.918C90.1165 178.918 100.828 168.203 100.828 154.986C100.828 141.769 90.1165 131.054 76.9028 131.054C63.6892 131.054 52.9775 141.769 52.9775 154.986C52.9775 168.203 63.6892 178.918 76.9028 178.918Z" stroke="#DAE4FA" stroke-width="20.5794" stroke-miterlimit="10"/>
<path d="M27.8528 85.6501L28.6324 81.1816C28.7823 80.4019 28.4225 79.6522 27.7629 79.2323L27.7329 79.2023C27.0733 78.7825 26.2338 78.8124 25.6042 79.2623L21.8865 81.8714C21.017 82.4712 19.8178 82.2612 19.2181 81.3915L16.13 76.9831C15.5304 76.1134 15.7403 74.9138 16.6097 74.314L20.3274 71.7049C20.9571 71.2551 21.2569 70.4754 21.107 69.7256V69.6956C20.9271 68.9159 20.3274 68.3461 19.5479 68.1962L15.0807 67.4164C14.0313 67.2365 13.3417 66.2468 13.5216 65.1972L14.451 59.8891C14.6309 58.8394 15.6203 58.1497 16.6697 58.3296L21.137 59.1093C21.9165 59.2593 22.666 58.8994 23.0858 58.2396L23.1157 58.2096C23.5355 57.5499 23.5055 56.7102 23.0558 56.0804L20.4474 52.3617C19.8477 51.492 20.0576 50.2924 20.9271 49.6926L25.3644 46.6037C26.2338 46.0039 27.4331 46.2138 28.0327 47.0835L30.6411 50.8022C31.0909 51.462 31.9004 51.7619 32.6499 51.582C33.4294 51.402 33.9991 50.8022 34.149 50.0225L34.9285 45.5541C35.1084 44.5044 36.0978 43.8147 37.1472 43.9946L42.4539 44.9243C43.5033 45.1042 44.1929 46.0939 44.013 47.1435L43.2334 51.612C43.0835 52.3917 43.4433 53.1714 44.1029 53.5913C44.7625 54.0111 45.632 54.0111 46.2616 53.5313C47.281 52.8115 48.81 51.7319 49.9793 50.9222C50.8488 50.3224 52.0481 50.5323 52.6477 51.402L55.7358 55.8105C56.3354 56.6802 56.1256 57.8798 55.2561 58.4796L51.5084 61.0886C50.8788 61.5385 50.579 62.2882 50.7588 63.038V63.0679C50.9387 63.8477 51.5384 64.4175 52.3179 64.5674C53.5471 64.7774 55.376 65.1072 56.7852 65.3471C57.8345 65.5271 58.5241 66.5167 58.3442 67.5664L57.4148 72.8745C57.2349 73.9242 56.2455 74.6139 55.1961 74.434L50.7289 73.6543C49.9493 73.5043 49.1698 73.8642 48.7501 74.5239C48.3303 75.1837 48.3603 76.0234 48.81 76.6532L51.4184 80.3719C52.0181 81.2416 51.8082 82.4412 50.9387 83.041L46.5314 86.1299C45.662 86.7297 44.4627 86.5198 43.8331 85.6501L41.2247 81.9314C40.7749 81.3016 39.9954 81.0017 39.2459 81.1516H39.2159C38.4364 81.3316 37.8367 81.9314 37.7168 82.7411C37.5069 83.9706 37.1771 85.8 36.9373 87.1795C36.7574 88.2292 35.768 88.9189 34.7187 88.739L29.4119 87.8693C28.3625 87.6893 27.673 86.6697 27.8528 85.6501ZM37.3271 58.6295C33.0697 57.8798 28.9922 60.7288 28.2426 64.9873C27.4931 69.2458 30.3413 73.3244 34.5987 74.0741C38.8561 74.8238 42.9336 71.9748 43.6832 67.7163C44.4327 63.4578 41.5845 59.3792 37.3271 58.6295Z" fill="#C3D5FA"/>
<path opacity="0.36" d="M35.9479 77.403C42.0579 77.403 47.0111 72.4485 47.0111 66.3368C47.0111 60.2252 42.0579 55.2707 35.9479 55.2707C29.8378 55.2707 24.8846 60.2252 24.8846 66.3368C24.8846 72.4485 29.8378 77.403 35.9479 77.403Z" stroke="#C3D5FA" stroke-width="10.2897" stroke-miterlimit="10"/>
<path d="M67.3088 484.271C30.8511 475.034 20.9272 422.073 43.5633 435.358C32.2602 407.168 29.0822 356.905 53.967 385.066C24.9147 324.397 82.4795 301.185 78.6119 380.327C99.9288 345.599 111.652 392.503 101.068 424.292C128.142 403.749 134.198 461.149 98.4897 484.271H67.3088Z" fill="#C8D9FA"/>
<path d="M49.9494 484.271C12.4124 481.812 -0.989455 437.577 23.6555 446.544C-1.88891 428.041 -11.1832 385.545 18.4087 408.757C4.85697 387.855 4.43723 368.631 15.2306 365.213C24.7948 362.154 42.7538 371.9 41.7944 399.64C56.4554 361.614 73.1552 401.23 62.6317 426.961C85.5377 401.86 88.7757 462.529 69.6773 484.301H49.9494V484.271Z" fill="#E1E9FA"/>
<path d="M396.597 484.271C429.847 475.874 438.902 427.561 418.274 439.677C428.588 413.976 431.466 368.122 408.77 393.823C435.274 338.492 382.776 317.349 386.284 389.504C366.856 357.835 356.152 400.63 365.806 429.6C341.101 410.887 335.615 463.218 368.175 484.271H396.597Z" fill="#C8D9FA"/>
<path d="M412.458 484.271C446.667 482.022 458.929 441.686 436.413 449.873C459.709 433.019 468.164 394.272 441.21 415.415C453.563 396.372 453.952 378.828 444.118 375.709C435.394 372.92 419.024 381.797 419.893 407.108C406.521 372.44 391.321 408.547 400.885 432.029C379.988 409.147 377.019 464.448 394.469 484.301H412.458V484.271Z" fill="#E1E9FA"/>
<path d="M113.421 88.829H294.51C302.395 88.829 308.781 95.2168 308.781 103.104V466.307C308.781 476.234 300.746 484.271 290.822 484.271H117.108C107.184 484.271 99.1493 476.234 99.1493 466.307V103.134C99.1493 95.2168 105.535 88.829 113.421 88.829Z" fill="#373839"/>
<path opacity="0.36" d="M115.13 93.5673H292.801C298.318 93.5673 302.815 98.0358 302.815 103.584V465.348C302.815 472.635 296.908 478.573 289.593 478.573H118.338C111.052 478.573 105.116 472.665 105.116 465.348V103.554C105.146 98.0358 109.613 93.5673 115.13 93.5673Z" fill="#373839"/>
<path d="M289.143 459.5H118.847C112.851 459.5 107.994 454.641 107.994 448.643V103.764C107.994 100.405 110.722 97.6759 114.08 97.6759H293.88C297.238 97.6759 299.967 100.405 299.967 103.764V448.643C299.967 454.641 295.11 459.5 289.143 459.5Z" fill="#EBF2FF"/>
<path opacity="0.36" d="M299.967 107.213H107.994V103.704C107.994 100.375 110.692 97.6759 114.02 97.6759H293.94C297.268 97.6759 299.967 100.375 299.967 103.704V107.213Z" fill="#373839"/>
<path d="M278.05 101.425H276.731V104.843H278.05V101.425Z" fill="#EBF2FF"/>
<path d="M279.879 100.795H278.56V104.873H279.879V100.795Z" fill="#EBF2FF"/>
<path d="M276.251 102.444H274.932V104.843H276.251V102.444Z" fill="#EBF2FF"/>
<path d="M281.708 100.045H280.389V104.843H281.708V100.045Z" fill="#EBF2FF"/>
<path d="M296.219 100.405V104.573C296.219 104.783 296.069 104.933 295.859 104.933H287.314C287.104 104.933 286.954 104.783 286.954 104.573V103.764H286.235V101.185H286.954V100.375C286.954 100.165 287.104 100.015 287.314 100.015H295.859C296.039 100.045 296.219 100.195 296.219 100.405Z" fill="#373839"/>
<path d="M295.829 104.783H288.933V100.225H295.829C295.949 100.225 296.039 100.315 296.039 100.435V104.574C296.039 104.693 295.949 104.783 295.829 104.783Z" fill="#EBF2FF"/>
<path opacity="0.36" d="M157.464 449.333C161.653 449.333 165.049 445.936 165.049 441.746C165.049 437.555 161.653 434.158 157.464 434.158C153.274 434.158 149.878 437.555 149.878 441.746C149.878 445.936 153.274 449.333 157.464 449.333Z" fill="#373839"/>
<path opacity="0.36" d="M203.995 449.333C208.185 449.333 211.581 445.936 211.581 441.746C211.581 437.555 208.185 434.158 203.995 434.158C199.806 434.158 196.41 437.555 196.41 441.746C196.41 445.936 199.806 449.333 203.995 449.333Z" fill="#373839"/>
<path opacity="0.36" d="M250.497 449.333C254.686 449.333 258.082 445.936 258.082 441.746C258.082 437.555 254.686 434.158 250.497 434.158C246.308 434.158 242.911 437.555 242.911 441.746C242.911 445.936 246.308 449.333 250.497 449.333Z" fill="#373839"/>
<path d="M284.496 154.986H125.773V313.75H284.496V154.986Z" fill="#FAFCFF"/>
<path d="M167.867 206.268C168.827 205.038 168.017 291.588 167.807 295.847C166.308 323.827 251.366 309.942 263.029 312.641C274.182 315.25 264.558 284.811 264.018 280.312C263.359 274.794 248.788 271.075 252.535 244.295C256.493 216.015 258.322 194.782 234.546 177.208C232.897 176.009 165.259 196.551 167.867 206.268Z" fill="#171D28"/>
<path d="M281.708 313.75H128.681C131.47 299.026 135.067 288.079 137.526 284.99C141.423 280.072 185.496 270.476 185.496 270.476L227.321 271.675C227.321 271.675 264.198 280.672 270.914 284.451C273.732 286.07 279.039 297.646 281.708 313.75Z" fill="#356CDB"/>
<path d="M226.182 248.493L227.321 271.705C227.321 271.705 230.649 308.502 207.503 308.502C191.313 308.502 185.497 270.505 185.497 270.505L186.876 250.562L226.182 248.493Z" fill="#E58070"/>
<path d="M229.48 191.453C231.548 193.522 238.054 211.186 236.315 227.441C239.404 224.682 241.232 226.661 242.192 228.37C243.811 231.219 240.993 239.676 235.956 246.244C233.767 255.931 220.905 269.066 207.293 269.186C198.059 269.246 183.638 257.25 178.541 247.684C172.155 249.993 164 251.162 166.968 239.106C169.816 227.471 171.525 219.223 171.525 219.223C171.525 219.223 167.867 187.135 170.476 184.406C173.054 181.647 224.803 186.775 229.48 191.453Z" fill="#F7A890"/>
<path d="M199.648 214.605C199.528 214.605 199.408 214.575 199.318 214.515C195.271 211.876 191.253 214.395 191.073 214.515C190.773 214.695 190.414 214.605 190.234 214.335C190.054 214.035 190.114 213.675 190.414 213.495C190.623 213.375 195.271 210.406 200.008 213.495C200.307 213.675 200.367 214.065 200.188 214.335C200.068 214.515 199.858 214.605 199.648 214.605Z" fill="#171D28"/>
<path d="M226.991 214.605C226.871 214.605 226.751 214.575 226.661 214.515C222.614 211.876 218.596 214.395 218.416 214.515C218.117 214.695 217.757 214.605 217.577 214.335C217.397 214.035 217.457 213.675 217.757 213.495C217.937 213.375 222.614 210.406 227.351 213.495C227.651 213.675 227.711 214.065 227.531 214.335C227.411 214.515 227.201 214.605 226.991 214.605Z" fill="#171D28"/>
<path d="M202.526 252.212C202.526 252.212 210.082 253.771 214.759 252.872C214.759 252.872 212.75 255.751 208.642 255.331C204.535 254.881 202.526 252.212 202.526 252.212Z" fill="#EBF2FF"/>
<path d="M179.11 203.869C179.11 203.869 183.188 213.226 176.982 227.231C176.982 227.231 172.125 223.122 171.135 232.059C169.636 245.704 178.511 247.654 178.511 247.654C179.29 263.638 178.331 272.035 174.313 273.055C166.548 275.004 161.091 276.234 153.686 278.543C143.612 255.361 154.226 251.372 161.121 235.088C167.777 219.343 154.076 194.482 163.91 184.166C169.636 178.138 177.072 180.777 177.072 180.777C183.907 167.192 219.316 163.233 238.894 180.537C255.204 194.962 247.469 225.491 236.345 227.441C231.129 228.37 234.876 206.958 215.118 210.167C185.347 215.025 179.11 203.869 179.11 203.869Z" fill="#171D28"/>
<path d="M208.672 246.274C208.523 246.274 208.403 246.274 208.283 246.274C207.833 246.244 207.473 245.884 207.473 245.434C207.473 244.984 207.863 244.625 208.313 244.625C209.722 244.685 211.251 244.355 211.431 243.995C211.581 243.215 210.291 238.537 209.572 236.018C208.942 233.828 208.582 232.449 208.493 231.819C208.433 231.369 208.762 230.949 209.212 230.919C209.662 230.859 210.082 231.189 210.112 231.639C210.171 232.149 210.621 233.828 211.131 235.568C212.81 241.536 213.32 243.845 212.87 244.715C212.27 246.124 209.842 246.274 208.672 246.274Z" fill="#171D28"/>
<path d="M222.328 225.918C223.801 225.906 224.98 223.962 224.96 221.577C224.94 219.192 223.73 217.269 222.256 217.281C220.782 217.293 219.604 219.237 219.623 221.622C219.643 224.007 220.854 225.93 222.328 225.918Z" fill="#171D28"/>
<path d="M195.735 217.259C194.261 217.247 193.05 219.171 193.03 221.556C193.011 223.941 194.189 225.884 195.663 225.896C197.137 225.909 198.347 223.985 198.367 221.6C198.387 219.215 197.208 217.272 195.735 217.259Z" fill="#171D28"/>
<path opacity="0.36" d="M284.496 154.986H125.773V313.75H284.496V154.986Z" fill="#FAFCFF"/>
<path d="M139.715 208.397H135.787V166.952C135.787 165.872 136.656 164.972 137.766 164.972H179.2V168.901H139.715V208.397Z" fill="#68696B"/>
<path d="M179.17 303.764H137.736C136.656 303.764 135.757 302.894 135.757 301.785V260.339H139.715V299.805H179.17V303.764Z" fill="#68696B"/>
<path d="M274.512 208.397H270.585V168.931H231.099V165.002H272.533C273.613 165.002 274.512 165.872 274.512 166.982V208.397Z" fill="#68696B"/>
<path d="M272.533 303.764H231.099V299.835H270.555V260.339H274.482V301.785C274.512 302.864 273.643 303.764 272.533 303.764Z" fill="#68696B"/>
<path d="M184.357 243.755L184.297 243.365L192.992 242.285L191.913 234.368L192.302 234.308L193.412 242.405C193.412 242.465 193.412 242.525 193.382 242.555C193.352 242.585 193.292 242.615 193.262 242.645L184.357 243.755Z" fill="#FAFCFF"/>
<path d="M202.045 244.03L193.284 242.277L193.208 242.659L201.969 244.413L202.045 244.03Z" fill="#FAFCFF"/>
<path d="M195.72 222.432C196.184 222.432 196.56 222.056 196.56 221.593C196.56 221.129 196.184 220.753 195.72 220.753C195.257 220.753 194.881 221.129 194.881 221.593C194.881 222.056 195.257 222.432 195.72 222.432Z" fill="#FAFCFF"/>
<path d="M187.535 209.237C187.999 209.237 188.375 208.861 188.375 208.397C188.375 207.933 187.999 207.557 187.535 207.557C187.072 207.557 186.696 207.933 186.696 208.397C186.696 208.861 187.072 209.237 187.535 209.237Z" fill="#FAFCFF"/>
<path d="M205.135 232.449C205.598 232.449 205.974 232.073 205.974 231.609C205.974 231.145 205.598 230.769 205.135 230.769C204.671 230.769 204.295 231.145 204.295 231.609C204.295 232.073 204.671 232.449 205.135 232.449Z" fill="#FAFCFF"/>
<path d="M192.152 235.208C192.616 235.208 192.992 234.832 192.992 234.368C192.992 233.904 192.616 233.528 192.152 233.528C191.689 233.528 191.313 233.904 191.313 234.368C191.313 234.832 191.689 235.208 192.152 235.208Z" fill="#FAFCFF"/>
<path d="M193.232 243.305C193.695 243.305 194.071 242.929 194.071 242.465C194.071 242.002 193.695 241.626 193.232 241.626C192.768 241.626 192.392 242.002 192.392 242.465C192.392 242.929 192.768 243.305 193.232 243.305Z" fill="#FAFCFF"/>
<path d="M198.868 257.67C199.332 257.67 199.708 257.294 199.708 256.83C199.708 256.366 199.332 255.991 198.868 255.991C198.405 255.991 198.029 256.366 198.029 256.83C198.029 257.294 198.405 257.67 198.868 257.67Z" fill="#FAFCFF"/>
<path d="M203.575 265.047C204.039 265.047 204.415 264.671 204.415 264.208C204.415 263.744 204.039 263.368 203.575 263.368C203.112 263.368 202.736 263.744 202.736 264.208C202.736 264.671 203.112 265.047 203.575 265.047Z" fill="#FAFCFF"/>
<path d="M214.219 265.047C214.683 265.047 215.058 264.671 215.058 264.208C215.058 263.744 214.683 263.368 214.219 263.368C213.755 263.368 213.379 263.744 213.379 264.208C213.379 264.671 213.755 265.047 214.219 265.047Z" fill="#FAFCFF"/>
<path d="M202.016 245.074C202.48 245.074 202.856 244.698 202.856 244.235C202.856 243.771 202.48 243.395 202.016 243.395C201.553 243.395 201.177 243.771 201.177 244.235C201.177 244.698 201.553 245.074 202.016 245.074Z" fill="#FAFCFF"/>
<path d="M182.348 231.759C182.812 231.759 183.188 231.383 183.188 230.919C183.188 230.456 182.812 230.08 182.348 230.08C181.885 230.08 181.509 230.456 181.509 230.919C181.509 231.383 181.885 231.759 182.348 231.759Z" fill="#FAFCFF"/>
<path d="M184.327 244.415C184.791 244.415 185.167 244.039 185.167 243.575C185.167 243.111 184.791 242.735 184.327 242.735C183.864 242.735 183.488 243.111 183.488 243.575C183.488 244.039 183.864 244.415 184.327 244.415Z" fill="#FAFCFF"/>
<path d="M202.526 253.531C202.99 253.531 203.366 253.155 203.366 252.692C203.366 252.228 202.99 251.852 202.526 251.852C202.062 251.852 201.687 252.228 201.687 252.692C201.687 253.155 202.062 253.531 202.526 253.531Z" fill="#FAFCFF"/>
<path d="M219.106 257.01H198.688C198.628 257.01 198.598 256.98 198.569 256.95L184.207 243.695C184.177 243.665 184.147 243.635 184.147 243.575L182.169 230.919C182.169 230.859 182.199 230.769 182.258 230.739L195.63 221.413C195.66 221.383 195.69 221.383 195.75 221.383H222.134C222.164 221.383 222.224 221.383 222.254 221.413L235.626 230.739C235.686 230.769 235.716 230.859 235.716 230.919L233.737 243.575C233.737 243.605 233.707 243.665 233.677 243.695L219.316 256.95C219.226 257.01 219.166 257.01 219.106 257.01ZM198.778 256.62H219.046L233.287 243.485L235.236 231.009L222.014 221.802H195.78L182.558 231.009L184.507 243.485L198.778 256.62Z" fill="#FAFCFF"/>
<path d="M214.249 264.388H203.575C203.515 264.388 203.456 264.358 203.426 264.298L198.569 256.92C198.509 256.83 198.539 256.74 198.599 256.68L202.436 252.542C202.466 252.512 202.496 252.512 202.526 252.482L207.233 250.802L201.926 244.325C201.896 244.265 201.867 244.205 201.896 244.145L205.015 231.639L195.9 221.922L192.422 234.368C192.422 234.428 192.362 234.458 192.332 234.488C192.272 234.518 192.212 234.518 192.182 234.488L182.288 231.099L182.408 230.739L192.003 234.128L195.51 221.563C195.54 221.503 195.57 221.443 195.66 221.413C195.72 221.383 195.81 221.413 195.84 221.473L205.284 231.519C205.344 231.579 205.344 231.639 205.344 231.699L202.226 244.205L207.653 250.802C207.683 250.862 207.713 250.922 207.683 250.982C207.653 251.042 207.623 251.102 207.563 251.102L202.646 252.842L198.928 256.83L203.665 263.998H214.129L218.866 256.83L215.148 252.842L210.231 251.102C210.171 251.072 210.111 251.042 210.111 250.982C210.081 250.922 210.111 250.862 210.141 250.802L215.568 244.205L212.45 231.699C212.42 231.639 212.45 231.579 212.51 231.519L221.954 221.473C222.014 221.413 222.074 221.413 222.134 221.413C222.194 221.443 222.254 221.473 222.284 221.563L225.792 234.128L235.386 230.739L235.506 231.099L225.732 234.548C225.672 234.578 225.612 234.548 225.582 234.548C225.522 234.518 225.492 234.488 225.492 234.428L222.014 221.982L212.87 231.669L215.988 244.175C215.988 244.235 215.988 244.295 215.958 244.355L210.651 250.832L215.358 252.512C215.388 252.512 215.418 252.542 215.448 252.572L219.286 256.71C219.346 256.77 219.346 256.89 219.316 256.95L214.459 264.328C214.369 264.358 214.309 264.388 214.249 264.388Z" fill="#FAFCFF"/>
<path d="M233.437 243.755L224.533 242.645C224.473 242.645 224.443 242.615 224.413 242.555C224.383 242.525 224.353 242.465 224.383 242.405L225.492 234.308L225.882 234.368L224.803 242.285L233.497 243.365L233.437 243.755Z" fill="#FAFCFF"/>
<path d="M224.609 242.666L224.533 242.284L215.77 244.03L215.847 244.413L224.609 242.666Z" fill="#FAFCFF"/>
<path d="M222.104 222.432C222.568 222.432 222.944 222.056 222.944 221.593C222.944 221.129 222.568 220.753 222.104 220.753C221.64 220.753 221.265 221.129 221.265 221.593C221.265 222.056 221.64 222.432 222.104 222.432Z" fill="#FAFCFF"/>
<path d="M230.259 209.237C230.723 209.237 231.099 208.861 231.099 208.397C231.099 207.933 230.723 207.557 230.259 207.557C229.796 207.557 229.42 207.933 229.42 208.397C229.42 208.861 229.796 209.237 230.259 209.237Z" fill="#FAFCFF"/>
<path d="M212.66 232.449C213.124 232.449 213.499 232.073 213.499 231.609C213.499 231.145 213.124 230.769 212.66 230.769C212.196 230.769 211.82 231.145 211.82 231.609C211.82 232.073 212.196 232.449 212.66 232.449Z" fill="#FAFCFF"/>
<path d="M225.672 235.208C226.136 235.208 226.511 234.832 226.511 234.368C226.511 233.904 226.136 233.528 225.672 233.528C225.208 233.528 224.833 233.904 224.833 234.368C224.833 234.832 225.208 235.208 225.672 235.208Z" fill="#FAFCFF"/>
<path d="M224.563 243.305C225.026 243.305 225.402 242.929 225.402 242.465C225.402 242.002 225.026 241.626 224.563 241.626C224.099 241.626 223.723 242.002 223.723 242.465C223.723 242.929 224.099 243.305 224.563 243.305Z" fill="#FAFCFF"/>
<path d="M218.926 257.67C219.39 257.67 219.766 257.294 219.766 256.83C219.766 256.366 219.39 255.991 218.926 255.991C218.462 255.991 218.087 256.366 218.087 256.83C218.087 257.294 218.462 257.67 218.926 257.67Z" fill="#FAFCFF"/>
<path d="M215.808 245.074C216.272 245.074 216.647 244.698 216.647 244.235C216.647 243.771 216.272 243.395 215.808 243.395C215.344 243.395 214.969 243.771 214.969 244.235C214.969 244.698 215.344 245.074 215.808 245.074Z" fill="#FAFCFF"/>
<path d="M235.446 231.759C235.91 231.759 236.285 231.383 236.285 230.919C236.285 230.456 235.91 230.08 235.446 230.08C234.982 230.08 234.606 230.456 234.606 230.919C234.606 231.383 234.982 231.759 235.446 231.759Z" fill="#FAFCFF"/>
<path d="M233.467 244.415C233.931 244.415 234.307 244.039 234.307 243.575C234.307 243.111 233.931 242.735 233.467 242.735C233.004 242.735 232.628 243.111 232.628 243.575C232.628 244.039 233.004 244.415 233.467 244.415Z" fill="#FAFCFF"/>
<path d="M215.268 253.531C215.732 253.531 216.108 253.155 216.108 252.692C216.108 252.228 215.732 251.852 215.268 251.852C214.805 251.852 214.429 252.228 214.429 252.692C214.429 253.155 214.805 253.531 215.268 253.531Z" fill="#FAFCFF"/>
<path d="M235.266 230.949L230.109 208.607H187.685L182.528 230.949L182.139 230.859L187.325 208.337C187.355 208.247 187.415 208.187 187.505 208.187H230.259C230.349 208.187 230.439 208.247 230.439 208.337L235.626 230.859L235.266 230.949Z" fill="#FAFCFF"/>
<path d="M331.447 482.831L350.276 469.156C387.723 441.955 406.102 395.591 397.527 350.127L393.659 329.704C393.15 327.035 390.811 325.116 388.113 325.116H265.817C263.089 325.116 260.781 327.035 260.271 329.704L256.403 350.127C247.798 395.621 266.207 441.955 303.654 469.156L322.483 482.831C325.151 484.78 328.779 484.78 331.447 482.831Z" fill="#143066"/>
<path opacity="0.36" d="M326.95 477.523C326.83 477.523 326.62 477.493 326.44 477.343L307.612 463.668C290.283 451.073 276.941 433.889 269.056 413.975C261.14 394.062 259.072 372.41 263.059 351.357L266.747 331.864H387.183L390.871 351.357C394.859 372.41 392.76 394.062 384.875 413.975C376.96 433.889 363.648 451.073 346.318 463.668L327.49 477.343C327.28 477.493 327.1 477.523 326.95 477.523Z" fill="#EBF2FF"/>
<path d="M348.537 392.923H305.363V371.33C305.363 359.425 315.047 349.738 326.95 349.738C338.853 349.738 348.537 359.425 348.537 371.33V392.923ZM312.439 385.845H341.461V371.33C341.461 363.323 334.955 356.815 326.95 356.815C318.945 356.815 312.439 363.323 312.439 371.33V385.845Z" fill="#D4E2FF"/>
<path opacity="0.36" d="M329.439 356.815C329.019 356.815 328.599 356.845 328.209 356.875C335.645 357.505 341.491 363.743 341.491 371.33V385.845H343.95V371.33C343.95 363.323 337.414 356.815 329.439 356.815Z" fill="#D4E2FF"/>
<path d="M353.784 380.057H300.146V427.531H353.784V380.057Z" fill="#EBF2FF"/>
<path opacity="0.36" d="M353.784 380.057H348.537V427.531H353.784V380.057Z" fill="#D4E2FF"/>
<path opacity="0.36" d="M347.368 380.057H345.539V427.531H347.368V380.057Z" fill="#D4E2FF"/>
<path d="M330.908 403.359L332.287 414.335H321.673L323.052 403.359C321.643 402.22 320.714 400.45 320.714 398.471C320.714 394.992 323.532 392.203 326.98 392.203C330.458 392.203 333.246 395.022 333.246 398.471C333.216 400.45 332.317 402.22 330.908 403.359Z" fill="#68696B"/>
<path opacity="0.36" d="M323.982 403.359L322.603 414.335H321.643L323.022 403.359C321.583 402.22 320.684 400.45 320.684 398.471C320.684 394.992 323.502 392.203 326.95 392.203C327.1 392.203 327.28 392.203 327.43 392.233C324.192 392.473 321.643 395.172 321.643 398.501C321.643 400.45 322.543 402.22 323.982 403.359Z" fill="#68696B"/>
<path opacity="0.36" d="M350.276 469.156L331.447 482.831C328.779 484.781 325.151 484.781 322.453 482.831L322.273 482.712L340.922 469.156C378.369 441.956 396.747 395.592 388.173 350.098L384.305 329.675C383.795 327.006 381.457 325.087 378.758 325.087H388.083C390.781 325.087 393.12 327.006 393.629 329.675L397.497 350.098C406.102 395.592 387.693 441.956 350.276 469.156Z" fill="#143066"/>
<path d="M205.135 382.666C215.848 382.666 224.533 373.979 224.533 363.263C224.533 352.547 215.848 343.86 205.135 343.86C194.421 343.86 185.736 352.547 185.736 363.263C185.736 373.979 194.421 382.666 205.135 382.666Z" fill="#D4E2FF"/>
<path d="M201.327 373.79L192.242 364.703L195.121 361.824L201.327 368.032L215.178 354.176L218.057 357.055L201.327 373.79Z" fill="#143066"/>
<path d="M390.091 133.633H346.978C345.389 133.633 344.1 132.344 344.1 130.754V96.4463C344.1 94.8569 345.389 93.5673 346.978 93.5673H390.091C391.68 93.5673 392.97 94.8569 392.97 96.4463V130.754C393 132.344 391.68 133.633 390.091 133.633Z" fill="#DEE9FF"/>
<g opacity="0.36">
<g opacity="0.36">
<path opacity="0.36" d="M359.21 127.365H356.122C356.122 112.911 367.875 101.155 382.326 101.155V104.244C369.584 104.274 359.21 114.62 359.21 127.365Z" fill="#DEE9FF"/>
</g>
<g opacity="0.36">
<path opacity="0.36" d="M366.076 127.365H362.988C362.988 116.719 371.653 108.022 382.326 108.022V111.111C373.362 111.141 366.076 118.429 366.076 127.365Z" fill="#DEE9FF"/>
</g>
<g opacity="0.36">
<path opacity="0.36" d="M372.972 127.365H369.884C369.884 120.498 375.46 114.92 382.326 114.92V118.009C377.169 118.009 372.972 122.207 372.972 127.365Z" fill="#DEE9FF"/>
</g>
<path opacity="0.36" d="M380.287 127.366C379.178 127.366 378.279 126.466 378.279 125.356C378.279 124.247 379.178 123.347 380.287 123.347C381.397 123.347 382.296 124.247 382.296 125.356C382.296 126.466 381.427 127.366 380.287 127.366Z" fill="#DEE9FF"/>
</g>
<path d="M358.551 126.706H355.463C355.463 112.251 367.215 100.495 381.667 100.495V103.584C368.894 103.584 358.551 113.96 358.551 126.706Z" fill="#143066"/>
<path d="M365.417 126.706H362.328C362.328 116.059 370.993 107.363 381.667 107.363V110.451C372.702 110.451 365.417 117.739 365.417 126.706Z" fill="#143066"/>
<path d="M372.282 126.706H369.194C369.194 119.838 374.771 114.26 381.637 114.26V117.349C376.48 117.349 372.282 121.548 372.282 126.706Z" fill="#143066"/>
<path d="M379.628 126.706C378.519 126.706 377.619 125.806 377.619 124.696C377.619 123.587 378.519 122.687 379.628 122.687C380.737 122.687 381.637 123.587 381.637 124.696C381.637 125.806 380.737 126.706 379.628 126.706Z" fill="#143066"/>
<path d="M361.609 248.073H318.495C316.906 248.073 315.617 246.784 315.617 245.194V210.856C315.617 209.267 316.906 207.977 318.495 207.977H361.609C363.198 207.977 364.487 209.267 364.487 210.856V245.164C364.487 246.784 363.198 248.073 361.609 248.073Z" fill="#DEE9FF"/>
<g opacity="0.36">
<g opacity="0.36">
<path opacity="0.36" d="M348.657 228.7H332.796V222.342C332.796 217.964 336.364 214.425 340.712 214.425C345.089 214.425 348.627 217.994 348.627 222.342V228.7H348.657ZM335.405 226.091H346.048V222.342C346.048 219.403 343.65 217.004 340.712 217.004C337.773 217.004 335.375 219.403 335.375 222.342V226.091H335.405Z" fill="#DEE9FF"/>
</g>
<path opacity="0.36" d="M350.576 242.975H330.878V225.551H350.576V242.975ZM343.02 232.329C343.02 231.069 342.001 230.02 340.712 230.02C339.422 230.02 338.403 231.039 338.403 232.329C338.403 233.049 338.733 233.708 339.273 234.128L338.763 238.147H342.66L342.151 234.128C342.69 233.678 343.02 233.049 343.02 232.329Z" fill="#DEE9FF"/>
</g>
<path d="M347.997 224.891V221.683C347.997 217.304 344.429 213.765 340.082 213.765C335.705 213.765 332.167 217.304 332.167 221.683V224.891H330.248V242.315H349.946V224.891H347.997ZM334.745 221.683C334.745 218.744 337.144 216.344 340.082 216.344C343.02 216.344 345.419 218.744 345.419 221.683V224.891H334.775V221.683H334.745ZM342.001 237.457H338.103L338.613 233.438C338.103 233.019 337.773 232.359 337.773 231.639C337.773 230.38 338.793 229.33 340.082 229.33C341.341 229.33 342.391 230.38 342.391 231.639C342.391 232.359 342.061 233.019 341.551 233.438L342.001 237.457Z" fill="#143066"/>
<path d="M255.864 40.066H212.75C211.161 40.066 209.872 38.7765 209.872 37.187V2.87899C209.872 1.28955 211.161 0 212.75 0H255.864C257.453 0 258.742 1.28955 258.742 2.87899V37.187C258.742 38.7765 257.453 40.066 255.864 40.066Z" fill="#DEE9FF"/>
<g opacity="0.36">
<path opacity="0.36" d="M233.107 16.6143H227.441V31.2192H233.107V16.6143Z" fill="#DEE9FF"/>
<path opacity="0.36" d="M240.843 13.8852H235.176V31.2192H240.843V13.8852Z" fill="#DEE9FF"/>
<path opacity="0.36" d="M225.372 20.9628H219.706V31.2192H225.372V20.9628Z" fill="#DEE9FF"/>
<path opacity="0.36" d="M248.578 10.7063H242.911V31.2191H248.578V10.7063Z" fill="#DEE9FF"/>
</g>
<path d="M232.448 15.9245H226.781V30.5294H232.448V15.9245Z" fill="#143066"/>
<path d="M240.153 13.1954H234.487V30.5294H240.153V13.1954Z" fill="#143066"/>
<path d="M224.713 20.2729H219.046V30.5294H224.713V20.2729Z" fill="#143066"/>
<path d="M247.888 10.0165H242.222V30.5293H247.888V10.0165Z" fill="#143066"/>
<path d="M35.8279 260.129L38.3764 264.088L41.2546 256.77C41.2546 256.77 39.3058 254.731 38.2265 253.292C37.4769 252.302 36.1877 249.813 35.618 248.613C35.1383 247.534 33.3994 246.604 32.8298 246.034C32.1702 245.374 31.3607 246.514 31.9003 247.803C32.0802 248.193 32.5899 248.433 33.0096 249.243C33.0996 249.393 33.1296 249.753 33.0696 249.813C32.9497 249.903 31.8703 248.943 31.0908 248.553C30.3113 248.163 28.1526 247.564 27.1332 246.664C26.1139 245.764 25.1544 247.054 25.6042 247.743C26.0539 248.433 27.2831 249.783 27.2831 249.783C27.2831 249.783 26.7135 250.203 26.7435 250.832C26.8034 251.822 28.0327 252.722 28.0327 252.722C28.0327 252.722 27.9427 253.561 28.2426 254.191C28.5124 254.821 29.112 255.301 29.112 255.301C29.112 255.301 29.112 256.32 29.5318 256.92C30.1014 257.79 30.851 257.46 31.3906 258.54C32.1102 259.889 32.6499 259.679 33.5793 259.799C34.4188 259.889 35.8279 260.129 35.8279 260.129Z" fill="#F7A890"/>
<path d="M31.7505 258.599L35.5582 256.74C35.6481 256.71 35.6481 256.53 35.5882 256.35L29.292 240.845C29.232 240.665 29.0821 240.545 28.9922 240.575L24.9147 241.925C24.8247 241.955 24.7947 242.135 24.8847 242.315L31.4507 258.389C31.5406 258.539 31.6606 258.659 31.7505 258.599Z" fill="#0E1219"/>
<path d="M32.1094 258.42L35.8871 256.56C35.977 256.53 35.9771 256.35 35.9171 256.17L29.6509 240.696C29.591 240.516 29.441 240.396 29.3811 240.426L25.3336 241.746C25.2436 241.776 25.2136 241.955 25.3036 242.135L31.8696 258.15C31.8995 258.36 32.0195 258.48 32.1094 258.42Z" fill="#1B212D"/>
<path d="M31.8404 257.67L35.6181 255.841L29.4718 240.636L25.4243 241.955L31.8404 257.67Z" fill="#EBF2FF"/>
<path d="M74.8042 247.534L58.9739 270.715L38.4964 253.351L34.5988 261.209C34.5988 261.209 57.3849 285.62 59.0039 286.37C62.6617 288.049 68.4481 284.091 68.4481 284.091L74.8042 247.534Z" fill="#0037A6"/>
<path d="M107.904 471.376C107.904 471.376 108.773 478.363 108.923 478.633C109.523 479.803 110.722 480.972 112.191 481.662C112.851 481.962 114.14 486.34 108.594 483.701C102.837 480.942 100.618 483.671 99.7489 481.332C98.8495 478.843 100.019 478.633 98.8495 471.376H107.904Z" fill="#F7A890"/>
<path d="M99.3292 480.402L99.629 486.13C99.659 486.55 99.8689 486.91 100.139 486.91H116.539C116.539 486.91 116.808 484.721 114.5 483.071C113.481 482.352 112.731 481.872 112.161 481.662C111.292 484.481 105.146 483.401 102.537 480.672C100.289 478.363 99.2093 477.703 99.3292 480.402Z" fill="#171D28"/>
<path d="M72.1958 222.732C73.1852 226.991 75.4938 230.799 77.3227 234.758C79.1516 238.717 80.5307 243.185 79.5114 247.444C79.2415 248.613 78.7918 249.873 79.2415 250.982C79.8711 252.482 81.8799 252.872 83.4689 252.512C86.4071 251.852 88.6558 249.453 90.0649 246.784C92.5534 242.015 92.7033 236.078 90.4247 231.219C88.7757 227.71 86.0174 224.831 83.6788 221.773C81.3103 218.684 79.2415 215.085 79.3614 211.186C79.3914 210.317 79.5114 209.447 79.4514 208.577C79.3315 206.898 77.9523 205.008 76.0335 205.848C74.6243 206.478 73.7249 209.057 73.2152 210.377C71.6262 214.245 71.2364 218.624 72.1958 222.732Z" fill="#141821"/>
<path d="M84.908 238.237L84.0985 242.915L78.5519 252.062L99.2692 240.906L97.1705 229.21L84.908 238.237Z" fill="#E58070"/>
<path d="M74.4744 213.585C73.1852 215.295 75.8536 231.789 78.8817 236.767C80.051 238.717 81.5201 239.946 83.2291 239.946C84.878 239.946 92.7932 237.127 94.3223 230.619C94.3223 230.619 100.049 224.322 98.3998 220.783C96.7808 217.364 93.7226 220.303 93.7226 220.303C93.7226 220.303 92.4034 211.456 91.3841 210.766C90.3347 210.137 75.7636 211.846 74.4744 213.585Z" fill="#F7A890"/>
<path d="M76.8178 221.129C76.4406 221.181 76.2013 221.703 76.2834 222.293C76.3655 222.884 76.7378 223.32 77.1151 223.268C77.4923 223.215 77.7316 222.694 77.6495 222.103C77.5674 221.513 77.195 221.076 76.8178 221.129Z" fill="#171D28"/>
<path d="M84.7244 220.492C84.3472 220.544 84.1079 221.066 84.19 221.656C84.2721 222.247 84.6444 222.683 85.0217 222.631C85.3989 222.578 85.6382 222.057 85.5561 221.466C85.474 220.876 85.1017 220.439 84.7244 220.492Z" fill="#171D28"/>
<path d="M87.1567 218.144C86.9768 217.724 86.647 217.424 86.2872 217.214C85.9274 217.004 85.5077 216.884 85.0579 216.854C84.6082 216.854 84.1585 216.944 83.7987 217.184C83.4089 217.394 83.1091 217.724 82.9592 218.144L82.9892 218.204C83.289 217.994 83.6188 217.784 83.9486 217.694C84.3084 217.574 84.6682 217.514 85.028 217.544C85.7475 217.544 86.4671 217.814 87.0967 218.204L87.1567 218.144Z" fill="#171D28"/>
<path d="M78.9716 219.074C78.7318 218.684 78.372 218.444 78.0122 218.264C77.6225 218.084 77.1727 218.024 76.753 218.084C76.3333 218.144 75.8835 218.294 75.5238 218.564C75.164 218.804 74.9241 219.193 74.8042 219.613L74.8642 219.673C75.134 219.433 75.4338 219.193 75.7636 219.044C76.0934 218.894 76.4532 218.774 76.813 218.774C77.5325 218.684 78.2821 218.834 78.9417 219.163L78.9716 219.074Z" fill="#171D28"/>
<path d="M80.2608 224.172C79.961 225.251 79.6912 226.361 79.4813 227.471C79.3614 228.04 79.1815 228.55 79.2415 229.21C79.2415 229.3 79.2415 229.39 79.3014 229.51C79.3614 229.66 79.4214 229.72 79.5113 229.78C79.6612 229.93 79.8411 229.99 80.021 230.05C80.3808 230.11 80.6806 230.05 80.9504 229.9V229.84C80.6806 229.84 80.3808 229.81 80.1409 229.72C79.9011 229.63 79.6912 229.42 79.6912 229.15C79.6312 228.61 79.7212 228.04 79.7811 227.471C79.931 226.361 80.1409 225.251 80.3508 224.142L80.2608 224.172Z" fill="#171D28"/>
<path d="M84.0985 232.659C84.0985 232.659 80.5906 233.648 78.9716 233.408C78.9716 233.408 79.2714 234.488 80.2908 234.668C81.3102 234.818 83.1091 233.738 84.0985 232.659Z" fill="#EBF2FF"/>
<path d="M67.6385 470.566C67.6385 470.566 67.2487 477.973 67.0988 478.243C66.9489 478.513 60.8027 480.732 59.3036 481.452C58.644 481.782 62.4217 486.43 67.9983 483.611C73.7848 480.702 76.4531 483.581 77.0827 481.092C77.7723 478.453 76.0634 478.243 77.2626 470.566H67.6385Z" fill="#F7A890"/>
<path d="M77.4726 480.102L77.8024 486.16C77.8324 486.61 77.4726 487 77.0229 487H52.258C52.258 487 51.4185 484.661 55.3161 482.921C57.0251 482.172 58.3143 481.662 59.3037 481.422C61.2825 484.391 69.0177 482.292 71.1464 480.492C74.3245 477.793 77.2927 477.253 77.4726 480.102Z" fill="#171D28"/>
<path d="M60.8927 313.421C60.8927 313.421 58.4642 330.005 59.0638 346.019C59.3936 354.716 62.9014 394.962 63.4111 404.679C63.9808 415.235 67.3087 474.014 67.3087 474.014H76.9928C77.9822 460.639 85.5976 435.418 83.3489 418.894C82.5095 412.716 82.8093 409.357 83.5588 405.548C86.2871 391.693 87.1266 378.408 90.7544 361.674C92.0436 355.766 97.98 341.251 98.4897 331.804C99.1493 319.239 97.6802 305.593 97.6802 305.593L60.8927 313.421Z" fill="#262626"/>
<path d="M65.5698 321.038C65.5698 321.038 66.859 333.753 68.0883 343.71C68.3281 345.659 75.0141 374.719 81.5501 404.559C88.7157 437.157 98.7895 474.044 98.7895 474.044H108.474C107.964 460.639 106.075 429.66 104.006 418.894C102.417 410.617 100.439 408.038 100.708 403.179C101.488 389.654 99.2393 378.438 98.4897 361.704C98.2199 355.796 102.357 340.921 101.638 331.654C101.098 324.517 98.9694 317.289 98.1599 309.972L65.5698 321.038Z" fill="#373737"/>
<path d="M98.9394 238.987C98.9394 238.987 108.444 242.705 111.352 253.801C113.361 261.449 100.978 291.168 99.3891 306.133C99.0893 308.952 101.398 324.487 101.758 327.576C101.758 327.576 86.527 329.975 72.6754 328.805C59.9932 327.755 59.3936 326.706 59.3936 326.706C60.323 319.898 60.5329 310.152 61.6722 300.495C63.3212 286.34 64.2206 278.033 64.0107 271.495C63.4711 268.736 63.561 263.698 64.6403 260.159C66.1694 255.181 70.7266 252.602 74.1745 248.253C78.1021 243.275 84.0984 242.885 84.0984 242.885L80.2908 250.323L98.9394 238.987Z" fill="#2453B3"/>
<path d="M80.2908 250.352C80.2908 250.352 84.7581 246.904 87.7263 252.632L99.8089 238.237C99.7789 238.237 83.4989 246.784 80.2908 250.352Z" fill="#0037A6"/>
<path d="M70.037 284.451H60.0231V297.556H70.037V284.451Z" fill="#E58070"/>
<path d="M65.0001 284.751C67.7654 284.751 70.007 284.616 70.007 284.451C70.007 284.285 67.7654 284.151 65.0001 284.151C62.2348 284.151 59.9932 284.285 59.9932 284.451C59.9932 284.616 62.2348 284.751 65.0001 284.751Z" fill="#A3625A"/>
<path d="M66.6791 297.826C69.4443 297.826 71.686 297.692 71.686 297.526C71.686 297.36 69.4443 297.226 66.6791 297.226C63.9138 297.226 61.6721 297.36 61.6721 297.526C61.6721 297.692 63.9138 297.826 66.6791 297.826Z" fill="#E58070"/>
<path d="M69.8271 296.446C70.5467 296.446 71.1463 295.847 71.1463 295.127V288.019C71.1463 287.3 70.5467 286.7 69.8271 286.7C69.7072 286.7 69.6173 286.79 69.6173 286.91V296.177C69.5873 296.356 69.7072 296.446 69.8271 296.446Z" fill="#A3625A"/>
<path d="M68.478 296.447C68.9877 296.926 69.4674 297.466 70.3968 297.796C71.3262 298.126 77.2026 297.466 77.2026 297.466L82.8692 298.126C85.6575 297.346 83.7686 291.078 83.7686 291.078L77.9822 290.509C77.9822 290.509 76.4231 289.369 75.2538 288.799C74.1145 288.229 72.3756 287.51 71.9858 287.42C71.776 287.39 71.3862 287.42 70.9964 287.51C71.0564 287.66 71.1164 287.87 71.1164 288.049V289.759C71.1164 289.759 70.4268 289.729 69.5873 289.669C69.5873 289.039 69.5873 288.829 69.5873 288.499C69.3774 288.409 68.5379 288.709 67.8783 289.369C67.4586 289.819 67.9083 290.539 67.8484 291.258C67.7284 293.418 68.1782 296.207 68.478 296.447Z" fill="#F7A890"/>
<path d="M100.558 250.742C99.7789 252.122 106.375 292.998 106.375 292.998L77.6824 290.239L78.5519 298.726C78.5519 298.726 107.454 305.623 110.572 305.623C113.69 305.623 117.768 303.374 118.787 300.225C119.597 297.676 119.207 257.7 113.72 252.632C108.204 247.533 105.505 242.015 100.558 250.742Z" fill="#0037A6"/>
<path d="M27.4331 241.296L74.1745 213.885L93.8725 217.514L94.3222 232.149C90.9343 236.947 87.1866 239.286 83.229 239.946L27.4331 242.045V241.296Z" fill="#EBF2FF" fill-opacity="0.25"/>
<path d="M74.1746 213.885C77.8924 216.075 82.5995 217.124 86.8269 217.754C87.7563 217.874 88.7157 217.874 89.6452 218.024C90.9644 218.234 91.1143 218.624 91.2642 220.093C91.4741 222.732 90.1848 225.311 90.7245 227.95C91.2342 230.499 93.3629 232.389 94.5022 234.728C95.9713 237.727 95.6715 241.296 94.9219 244.565C94.1724 247.833 93.0031 251.042 92.8232 254.371C92.7033 256.68 93.123 259.199 94.772 260.849C96.8108 262.888 100.049 262.978 102.897 262.588C106.105 262.138 109.223 261.209 112.131 259.829C116.059 257.97 119.927 254.761 120.286 250.413C120.616 246.304 117.708 242.645 114.53 239.976C111.382 237.307 107.724 235.028 105.625 231.459C102.477 226.061 103.707 219.313 103.017 213.106C102.657 209.837 101.608 206.448 99.1194 204.319C96.9607 202.459 93.9925 201.8 91.1443 201.62C86.5271 201.35 80.141 202.069 76.3633 204.978C74.5344 206.388 71.0565 212.056 74.1746 213.885Z" fill="#141821"/>
<path d="M80.2908 250.353C80.2908 250.353 79.0616 248.133 77.6824 248.553L83.4389 243.005L84.0985 242.915L80.2908 250.353Z" fill="#0037A6"/>
</svg>
