<svg width="458" height="472" viewBox="0 0 458 472" fill="none" xmlns="http://www.w3.org/2000/svg">
<g clip-path="url(#clip0)">
<path d="M429.727 239.724L426.578 236.58C425.447 235.451 423.766 235.145 422.299 235.756C422.269 235.756 422.269 235.756 422.238 235.786C420.771 236.397 419.793 237.801 419.793 239.418V243.844C419.793 246.011 418.05 247.751 415.88 247.751H404.693C402.523 247.751 400.781 246.011 400.781 243.844V239.418C400.781 237.831 399.803 236.397 398.335 235.786C398.305 235.786 398.305 235.786 398.274 235.756C396.807 235.145 395.126 235.451 393.995 236.58L390.847 239.724C389.318 241.25 386.843 241.25 385.314 239.724L377.398 231.818C375.869 230.292 375.869 227.82 377.398 226.294L380.546 223.15C381.677 222.021 381.983 220.342 381.371 218.877C381.371 218.846 381.371 218.846 381.341 218.816C380.729 217.351 379.323 216.374 377.703 216.374H373.271C371.101 216.374 369.359 214.634 369.359 212.467V201.296C369.359 199.129 371.101 197.389 373.271 197.389H377.703C379.293 197.389 380.729 196.412 381.341 194.947C381.341 194.917 381.341 194.917 381.371 194.886C381.983 193.421 381.677 191.742 380.546 190.613L377.398 187.469C375.869 185.943 375.869 183.471 377.398 181.945L385.314 174.039C386.843 172.513 389.318 172.513 390.847 174.039L393.995 177.183C395.126 178.312 396.807 178.618 398.274 178.007C398.305 178.007 398.305 178.007 398.335 177.977C399.803 177.366 400.781 175.962 400.781 174.345V170.01C400.781 167.843 402.523 166.103 404.693 166.103H415.88C418.05 166.103 419.793 167.843 419.793 170.01V174.436C419.793 176.023 420.771 177.458 422.238 178.068C422.269 178.068 422.269 178.068 422.299 178.099C423.766 178.709 425.447 178.404 426.578 177.275L429.727 174.131C431.255 172.605 433.731 172.605 435.259 174.131L443.176 182.036C444.704 183.562 444.704 186.035 443.176 187.561L440.027 190.705C438.896 191.834 438.591 193.513 439.202 194.978C439.202 195.008 439.202 195.008 439.233 195.039C439.844 196.504 441.25 197.481 442.87 197.481H447.302C449.472 197.481 451.214 199.22 451.214 201.387V212.559C451.214 214.726 449.472 216.466 447.302 216.466H442.87C441.281 216.466 439.844 217.442 439.233 218.907C439.233 218.938 439.233 218.938 439.202 218.968C438.591 220.433 438.896 222.112 440.027 223.242L443.176 226.385C444.704 227.911 444.704 230.384 443.176 231.91L435.259 239.815C433.731 241.25 431.255 241.25 429.727 239.724ZM421.688 195.558C415.391 189.27 405.213 189.27 398.916 195.558C392.62 201.845 392.62 212.009 398.916 218.297C405.213 224.585 415.391 224.585 421.688 218.297C427.984 212.009 427.984 201.845 421.688 195.558Z" fill="#DAE4FA"/>
<path opacity="0.36" d="M410.317 230.72C423.484 230.72 434.159 220.061 434.159 206.912C434.159 193.764 423.484 183.105 410.317 183.105C397.15 183.105 386.476 193.764 386.476 206.912C386.476 220.061 397.15 230.72 410.317 230.72Z" stroke="#DAE4FA" stroke-width="20.1137" stroke-miterlimit="10"/>
<path d="M345.731 172.941L346.526 168.484C346.648 167.721 346.312 166.958 345.67 166.531L345.639 166.5C344.998 166.073 344.142 166.103 343.5 166.561L339.801 169.156C338.945 169.766 337.723 169.553 337.142 168.698L334.055 164.303C333.444 163.448 333.658 162.227 334.513 161.647L338.212 159.053C338.854 158.595 339.159 157.832 338.976 157.069V157.038C338.793 156.275 338.181 155.695 337.417 155.543L332.985 154.749C331.946 154.566 331.243 153.559 331.426 152.521L332.374 147.241C332.557 146.203 333.566 145.501 334.605 145.684L339.068 146.477C339.832 146.6 340.596 146.264 341.024 145.623L341.055 145.592C341.482 144.951 341.452 144.097 340.993 143.456L338.395 139.763C337.784 138.908 337.998 137.718 338.854 137.107L343.255 134.024C344.111 133.414 345.303 133.628 345.915 134.482L348.513 138.175C348.971 138.816 349.766 139.122 350.53 138.969C351.294 138.786 351.875 138.175 352.028 137.412L352.822 132.987C353.006 131.949 354.014 131.247 355.054 131.43L360.342 132.376C361.381 132.559 362.084 133.566 361.9 134.604L361.106 139.03C360.984 139.793 361.32 140.587 361.962 140.983C362.634 141.411 363.49 141.38 364.132 140.922C365.14 140.22 366.669 139.152 367.83 138.328C368.686 137.718 369.909 137.931 370.49 138.786L373.577 143.181C374.188 144.036 373.974 145.257 373.118 145.837L369.389 148.431C368.778 148.858 368.472 149.621 368.625 150.384V150.415C368.808 151.178 369.42 151.758 370.184 151.911C371.406 152.124 373.24 152.46 374.616 152.704C375.655 152.887 376.358 153.894 376.175 154.932L375.227 160.213C375.044 161.25 374.035 161.952 372.996 161.769L368.564 160.976C367.8 160.854 367.005 161.189 366.608 161.83C366.18 162.471 366.21 163.326 366.669 163.967L369.267 167.66C369.878 168.515 369.664 169.736 368.808 170.316L364.407 173.398C363.551 174.009 362.328 173.795 361.717 172.91L359.119 169.217C358.691 168.576 357.896 168.271 357.163 168.454H357.132C356.368 168.637 355.757 169.247 355.634 170.01C355.421 171.231 355.115 173.063 354.87 174.436C354.687 175.474 353.678 176.176 352.639 175.993L347.351 175.047C346.251 174.955 345.548 173.978 345.731 172.941ZM355.176 146.081C350.927 145.318 346.893 148.156 346.129 152.399C345.364 156.641 348.207 160.67 352.456 161.434C356.704 162.197 360.739 159.358 361.503 155.115C362.267 150.873 359.394 146.813 355.176 146.081Z" fill="#C3D5FA"/>
<path opacity="0.36" d="M353.8 164.761C359.895 164.761 364.835 159.827 364.835 153.742C364.835 147.656 359.895 142.723 353.8 142.723C347.706 142.723 342.766 147.656 342.766 153.742C342.766 159.827 347.706 164.761 353.8 164.761Z" stroke="#C3D5FA" stroke-width="10.0568" stroke-miterlimit="10"/>
<path d="M56.0276 472C56.0276 472 61.0098 355.557 68.2845 298.541C68.2845 298.541 92.4622 413.488 79.7162 472H56.0276Z" fill="#C8D9FA"/>
<path d="M48.6305 472C48.6305 472 8.28348 393.557 14.7635 341.242C14.7635 341.242 39.3079 445.11 69.721 472H48.6305Z" fill="#E1E9FA"/>
<path d="M91.973 472C91.973 472 90.9949 416.846 104.169 334.344C104.169 334.344 73.7557 429.085 68.2844 472H91.973Z" fill="#E1E9FA"/>
<path d="M54.3463 472C54.3463 472 41.5391 407.506 29.3127 313.832C29.3127 313.832 71.2798 423.286 76.3232 472H54.3463Z" fill="#E1E9FA"/>
<path d="M91.973 472C91.973 472 120.338 426.705 126.757 354.275C126.757 354.275 102.396 442.668 68.2844 472H91.973Z" fill="#E1E9FA"/>
<path d="M311.528 472C311.528 472 331.641 364.744 338.946 307.728C338.946 307.728 347.994 413.458 335.217 472H311.528Z" fill="#C8D9FA"/>
<path d="M304.101 472C304.101 472 283.682 416.419 290.162 364.133C290.162 364.133 294.778 445.11 325.191 472H304.101Z" fill="#E1E9FA"/>
<path d="M347.474 472C347.474 472 365.263 438.242 360.495 354.275C360.495 354.275 329.226 429.085 323.785 472H347.474Z" fill="#E1E9FA"/>
<path d="M309.847 472C309.847 472 286.617 403.172 311.528 322.379C311.528 322.379 319.078 422.706 331.855 472H309.847Z" fill="#E1E9FA"/>
<path d="M347.474 472C347.474 472 375.839 460.096 382.258 387.666C382.258 387.666 357.897 442.698 323.785 472H347.474Z" fill="#E1E9FA"/>
<path d="M110.313 78.6565H290.774C298.629 78.6565 305.018 85.0052 305.018 92.88V454.144C305.018 464.034 297.009 472.03 287.106 472.03H113.98C104.077 472.03 96.0688 464.034 96.0688 454.144V92.8495C96.0688 85.0052 102.457 78.6565 110.313 78.6565Z" fill="#373839"/>
<path opacity="0.36" d="M111.994 83.357H289.032C294.534 83.357 298.996 87.8133 298.996 93.3073V453.168C298.996 460.432 293.097 466.323 285.822 466.323H115.203C107.929 466.323 102.029 460.432 102.029 453.168V93.3073C102.029 87.8133 106.492 83.357 111.994 83.357Z" fill="#373839"/>
<path d="M285.364 447.338H115.692C109.732 447.338 104.903 442.515 104.903 436.563V93.4904C104.903 90.1329 107.623 87.4164 110.985 87.4164H290.163C293.525 87.4164 296.245 90.1329 296.245 93.4904V436.563C296.184 442.515 291.355 447.338 285.364 447.338Z" fill="#EBF2FF"/>
<path opacity="0.36" d="M296.184 96.9394H104.872V93.4293C104.872 90.1024 107.562 87.4164 110.894 87.4164H290.193C293.525 87.4164 296.215 90.1024 296.215 93.4293V96.9394H296.184Z" fill="#373839"/>
<path d="M274.36 91.1707H273.045V94.5892H274.36V91.1707Z" fill="#EBF2FF"/>
<path d="M276.163 90.5298H274.849V94.5893H276.163V90.5298Z" fill="#EBF2FF"/>
<path d="M272.526 92.178H271.212V94.5587H272.526V92.178Z" fill="#EBF2FF"/>
<path d="M277.967 89.7972H276.653V94.5892H277.967V89.7972Z" fill="#EBF2FF"/>
<path d="M292.425 90.133V94.3145C292.425 94.4977 292.272 94.6808 292.058 94.6808H283.561C283.377 94.6808 283.194 94.5282 283.194 94.3145V93.521H282.491V90.9571H283.194V90.1635C283.194 89.9803 283.347 89.7972 283.561 89.7972H292.058C292.272 89.7972 292.425 89.9498 292.425 90.133Z" fill="#373839"/>
<path d="M292.058 94.4977H285.181V89.9498H292.058C292.18 89.9498 292.272 90.0414 292.272 90.1635V94.284C292.272 94.4061 292.18 94.4977 292.058 94.4977Z" fill="#EBF2FF"/>
<path opacity="0.36" d="M154.175 437.235C158.344 437.235 161.725 433.86 161.725 429.696C161.725 425.532 158.344 422.157 154.175 422.157C150.005 422.157 146.625 425.532 146.625 429.696C146.625 433.86 150.005 437.235 154.175 437.235Z" fill="#373839"/>
<path opacity="0.36" d="M200.543 437.235C204.713 437.235 208.093 433.86 208.093 429.696C208.093 425.532 204.713 422.157 200.543 422.157C196.374 422.157 192.993 425.532 192.993 429.696C192.993 433.86 196.374 437.235 200.543 437.235Z" fill="#373839"/>
<path opacity="0.36" d="M246.881 437.235C251.051 437.235 254.431 433.86 254.431 429.696C254.431 425.532 251.051 422.157 246.881 422.157C242.712 422.157 239.332 425.532 239.332 429.696C239.332 433.86 242.712 437.235 246.881 437.235Z" fill="#373839"/>
<path d="M280.779 144.432H122.6V302.386H280.779V144.432Z" fill="#FAFCFF"/>
<path d="M272.465 302.386H132.992C136.14 285.843 142.773 261.151 152.463 252.238C160.746 244.638 192.26 238.991 192.779 238.9L221.908 239.419C221.908 239.419 254.767 247.293 261.919 253.154C262.194 253.367 262.439 253.612 262.622 253.795C262.622 253.825 262.653 253.825 262.653 253.856C262.714 253.947 262.806 254.069 262.897 254.161C267.605 260.601 272.465 288.987 272.465 302.386Z" fill="#4C4D4F"/>
<path d="M262.622 253.825C262.439 253.612 262.195 253.398 261.919 253.184C262.164 253.337 262.378 253.55 262.622 253.825Z" fill="#4C4D4F"/>
<path d="M262.897 254.16C262.805 254.038 262.744 253.947 262.653 253.856C262.714 253.917 262.775 254.008 262.836 254.069C262.866 254.13 262.897 254.16 262.897 254.16Z" fill="#4C4D4F"/>
<path d="M192.779 260.326C188.928 250.529 192.626 239.388 192.779 238.9L221.908 239.419C224.231 244.974 222.061 258.251 222.061 262.097C222.061 265.18 222.55 281.509 223.131 302.356H193.757C194.369 281.204 194.338 264.294 192.779 260.326Z" fill="#EBF2FF"/>
<path d="M194.46 222.784L192.779 238.9C192.779 238.9 196.447 258.22 206.687 258.22C217.629 258.22 221.908 239.449 221.908 239.449L221.725 222.814H194.46V222.784Z" fill="#E58070"/>
<path d="M187.919 185.913C187.155 186.645 189.295 230.201 191.281 231.422C195.01 233.68 223.956 233.802 224.537 231.818C226.065 226.355 230.65 187.225 228.633 185.607C226.616 184.02 191.006 182.891 187.919 185.913Z" fill="#F7A890"/>
<path d="M200.971 221.288C200.971 221.288 209.56 222.265 215.52 220.708C215.52 220.708 213.809 226.172 206.351 225.805C201.552 225.592 200.971 221.288 200.971 221.288Z" fill="#EBF2FF"/>
<path d="M214.176 196.779C214.359 196.107 214.817 195.619 215.368 195.314C215.918 194.978 216.529 194.856 217.171 194.856C218.424 194.917 219.616 195.527 220.136 196.748L220.075 196.87C219.616 196.656 219.158 196.443 218.638 196.321C218.149 196.168 217.629 196.107 217.14 196.107C216.132 196.077 215.093 196.321 214.267 196.901L214.176 196.779Z" fill="#171D28"/>
<path d="M216.315 205.05C217.058 205.05 217.66 203.902 217.66 202.486C217.66 201.07 217.058 199.922 216.315 199.922C215.572 199.922 214.97 201.07 214.97 202.486C214.97 203.902 215.572 205.05 216.315 205.05Z" fill="#171D28"/>
<path d="M202.316 196.779C202.132 196.107 201.674 195.619 201.124 195.314C200.574 194.978 199.962 194.856 199.32 194.856C198.067 194.917 196.875 195.527 196.355 196.748L196.417 196.87C196.875 196.656 197.334 196.443 197.853 196.321C198.342 196.168 198.862 196.107 199.351 196.107C200.36 196.077 201.399 196.321 202.224 196.901L202.316 196.779Z" fill="#171D28"/>
<path d="M200.176 205.05C200.919 205.05 201.521 203.902 201.521 202.486C201.521 201.07 200.919 199.922 200.176 199.922C199.433 199.922 198.831 201.07 198.831 202.486C198.831 203.902 199.433 205.05 200.176 205.05Z" fill="#171D28"/>
<path d="M208.521 206.21C208.826 208.682 209.224 211.155 209.743 213.566C210.049 214.787 210.324 215.977 210.905 217.107C210.997 217.29 210.905 217.534 210.783 217.656C210.66 217.778 210.507 217.839 210.355 217.9C210.049 218.022 209.743 218.083 209.438 218.144C208.826 218.266 208.184 218.327 207.573 218.358C207.543 218.358 207.512 218.327 207.512 218.297C207.512 218.266 207.512 218.236 207.543 218.236H207.573C208.184 217.992 208.765 217.748 209.315 217.534C209.59 217.412 209.866 217.32 210.049 217.168C210.141 217.107 210.232 217.046 210.232 217.015C210.232 217.015 210.202 217.046 210.141 217.137C210.11 217.229 210.11 217.351 210.141 217.381V217.412L210.11 217.351L210.049 217.229L209.927 216.985C209.835 216.832 209.774 216.679 209.713 216.496C209.59 216.191 209.529 215.855 209.438 215.55C209.315 214.909 209.224 214.299 209.132 213.658C208.765 211.155 208.582 208.652 208.429 206.149C208.429 206.118 208.46 206.088 208.49 206.088C208.49 206.149 208.521 206.18 208.521 206.21Z" fill="#171D28"/>
<path d="M190.12 187.897C190.12 187.897 190.151 205.813 188.225 210.666C183.426 205.691 179.025 186.981 184.893 179.137C189.111 173.49 190.12 187.897 190.12 187.897Z" fill="#171D28"/>
<path d="M186.391 187.133C193.177 190.216 225.424 188.141 225.424 188.141C223.559 198.488 228.602 210.911 228.602 210.911C228.602 210.911 233.279 196.229 232.698 182.28C232.118 168.21 229.672 169.522 222.581 170.132C214.94 170.773 191.923 161.281 184.037 166.042C177.649 169.888 184.007 186.065 186.391 187.133Z" fill="#171D28"/>
<path d="M190.212 206.851C190.212 206.851 188.133 200.289 184.496 204.562C180.675 209.049 186.788 217.045 190.212 217.473C193.635 217.9 190.212 206.851 190.212 206.851Z" fill="#F7A890"/>
<path d="M227.105 206.851C227.105 206.851 229.061 200.289 232.454 204.562C236.061 209.049 230.284 217.045 227.105 217.473C223.926 217.9 227.105 206.851 227.105 206.851Z" fill="#F7A890"/>
<path opacity="0.36" d="M280.779 144.432H122.6V302.386H280.779V144.432Z" fill="#FAFCFF"/>
<path d="M136.507 197.572H132.595V156.336C132.595 155.268 133.481 154.383 134.551 154.383H175.846V158.29H136.507V197.572Z" fill="#68696B"/>
<path d="M175.815 292.436H134.52C133.451 292.436 132.564 291.551 132.564 290.483V249.247H136.477V288.529H175.815V292.436Z" fill="#68696B"/>
<path d="M270.814 197.572H266.902V158.32H227.563V154.413H268.858C269.928 154.413 270.814 155.298 270.814 156.367V197.572Z" fill="#68696B"/>
<path d="M268.858 292.436H227.563V288.529H266.902V249.247H270.814V290.483C270.814 291.551 269.928 292.436 268.858 292.436Z" fill="#68696B"/>
<path d="M200.176 202.486L202.743 213.108H213.869L216.406 202.486H200.176Z" stroke="#FAFCFF" stroke-width="1.1025" stroke-miterlimit="10" stroke-linejoin="round"/>
<path d="M207.94 192.872L193.146 194.245L194.002 210.666L198.862 220.708L208.245 229.743L202.743 213.108L194.002 210.666L200.176 202.486L207.94 192.872Z" stroke="#FAFCFF" stroke-width="1.1025" stroke-miterlimit="10" stroke-linejoin="round"/>
<path d="M200.176 203.341C200.649 203.341 201.032 202.958 201.032 202.486C201.032 202.014 200.649 201.632 200.176 201.632C199.704 201.632 199.32 202.014 199.32 202.486C199.32 202.958 199.704 203.341 200.176 203.341Z" fill="#FAFCFF"/>
<path d="M193.146 195.1C193.619 195.1 194.002 194.717 194.002 194.245C194.002 193.773 193.619 193.391 193.146 193.391C192.673 193.391 192.29 193.773 192.29 194.245C192.29 194.717 192.673 195.1 193.146 195.1Z" fill="#FAFCFF"/>
<path d="M207.94 193.726C208.412 193.726 208.796 193.344 208.796 192.872C208.796 192.4 208.412 192.017 207.94 192.017C207.467 192.017 207.084 192.4 207.084 192.872C207.084 193.344 207.467 193.726 207.94 193.726Z" fill="#FAFCFF"/>
<path d="M208.245 230.598C208.718 230.598 209.101 230.215 209.101 229.743C209.101 229.271 208.718 228.888 208.245 228.888C207.773 228.888 207.39 229.271 207.39 229.743C207.39 230.215 207.773 230.598 208.245 230.598Z" fill="#FAFCFF"/>
<path d="M198.862 221.563C199.334 221.563 199.718 221.18 199.718 220.708C199.718 220.236 199.334 219.854 198.862 219.854C198.389 219.854 198.006 220.236 198.006 220.708C198.006 221.18 198.389 221.563 198.862 221.563Z" fill="#FAFCFF"/>
<path d="M194.002 226.324C194.474 226.324 194.857 225.942 194.857 225.47C194.857 224.998 194.474 224.615 194.002 224.615C193.529 224.615 193.146 224.998 193.146 225.47C193.146 225.942 193.529 226.324 194.002 226.324Z" fill="#FAFCFF"/>
<path d="M202.835 213.963C203.308 213.963 203.691 213.58 203.691 213.108C203.691 212.636 203.308 212.253 202.835 212.253C202.362 212.253 201.979 212.636 201.979 213.108C201.979 213.58 202.362 213.963 202.835 213.963Z" fill="#FAFCFF"/>
<path d="M194.002 211.521C194.474 211.521 194.857 211.138 194.857 210.666C194.857 210.194 194.474 209.812 194.002 209.812C193.529 209.812 193.146 210.194 193.146 210.666C193.146 211.138 193.529 211.521 194.002 211.521Z" fill="#FAFCFF"/>
<path d="M194.002 210.666V225.47L208.245 229.743L198.862 220.708L194.002 210.666Z" stroke="#FAFCFF" stroke-width="1.1025" stroke-miterlimit="10" stroke-linejoin="round"/>
<path d="M208.673 192.872L223.467 194.245L222.611 210.666L217.751 220.708L208.245 229.743L213.87 213.108L222.611 210.666L216.406 202.486L208.673 192.872Z" stroke="#FAFCFF" stroke-width="1.1025" stroke-miterlimit="10" stroke-linejoin="round"/>
<path d="M216.407 203.341C216.879 203.341 217.262 202.958 217.262 202.486C217.262 202.014 216.879 201.632 216.407 201.632C215.934 201.632 215.551 202.014 215.551 202.486C215.551 202.958 215.934 203.341 216.407 203.341Z" fill="#FAFCFF"/>
<path d="M223.467 195.1C223.94 195.1 224.323 194.717 224.323 194.245C224.323 193.773 223.94 193.391 223.467 193.391C222.994 193.391 222.611 193.773 222.611 194.245C222.611 194.717 222.994 195.1 223.467 195.1Z" fill="#FAFCFF"/>
<path d="M208.673 193.726C209.146 193.726 209.529 193.344 209.529 192.872C209.529 192.4 209.146 192.017 208.673 192.017C208.201 192.017 207.817 192.4 207.817 192.872C207.817 193.344 208.201 193.726 208.673 193.726Z" fill="#FAFCFF"/>
<path d="M217.751 221.563C218.224 221.563 218.607 221.18 218.607 220.708C218.607 220.236 218.224 219.854 217.751 219.854C217.279 219.854 216.896 220.236 216.896 220.708C216.896 221.18 217.279 221.563 217.751 221.563Z" fill="#FAFCFF"/>
<path d="M222.611 226.324C223.084 226.324 223.467 225.942 223.467 225.47C223.467 224.998 223.084 224.615 222.611 224.615C222.139 224.615 221.756 224.998 221.756 225.47C221.756 225.942 222.139 226.324 222.611 226.324Z" fill="#FAFCFF"/>
<path d="M213.747 213.963C214.22 213.963 214.603 213.58 214.603 213.108C214.603 212.636 214.22 212.253 213.747 212.253C213.275 212.253 212.892 212.636 212.892 213.108C212.892 213.58 213.275 213.963 213.747 213.963Z" fill="#FAFCFF"/>
<path d="M222.611 211.521C223.084 211.521 223.467 211.138 223.467 210.666C223.467 210.194 223.084 209.812 222.611 209.812C222.139 209.812 221.756 210.194 221.756 210.666C221.756 211.138 222.139 211.521 222.611 211.521Z" fill="#FAFCFF"/>
<path d="M222.611 210.666V225.47L208.245 229.743L217.751 220.708L222.611 210.666Z" stroke="#FAFCFF" stroke-width="1.1025" stroke-miterlimit="10" stroke-linejoin="round"/>
<path d="M201.674 370.909C212.343 370.909 220.992 362.273 220.992 351.619C220.992 340.966 212.343 332.329 201.674 332.329C191.005 332.329 182.356 340.966 182.356 351.619C182.356 362.273 191.005 370.909 201.674 370.909Z" fill="#D4E2FF"/>
<path d="M197.883 362.088L188.836 353.054L191.679 350.185L197.883 356.381L211.699 342.585L214.542 345.454L197.883 362.088Z" fill="#143066"/>
<path d="M49.0583 78.6565H92.0034C93.5928 78.6565 94.8766 77.3745 94.8766 75.7874V41.6327C94.8766 40.0455 93.5928 38.7636 92.0034 38.7636H49.0583C47.4688 38.7636 46.1851 40.0455 46.1851 41.6327V75.7569C46.1851 77.3745 47.4688 78.6565 49.0583 78.6565Z" fill="#DEE9FF"/>
<g opacity="0.36">
<g opacity="0.36">
<path opacity="0.36" d="M79.8374 72.3994H82.9246C82.9246 58.0233 71.2178 46.3332 56.8213 46.3332V49.4159C69.5062 49.4159 79.8374 59.7325 79.8374 72.3994Z" fill="#DEE9FF"/>
</g>
<g opacity="0.36">
<path opacity="0.36" d="M72.9912 72.3994H76.0783C76.0783 61.8081 67.4282 53.1702 56.8218 53.1702V56.253C65.7165 56.253 72.9912 63.5174 72.9912 72.3994Z" fill="#DEE9FF"/>
</g>
<g opacity="0.36">
<path opacity="0.36" d="M66.1444 72.3994H69.2315C69.2315 65.5624 63.6685 60.0073 56.8218 60.0073V63.09C61.9569 63.09 66.1444 67.2716 66.1444 72.3994Z" fill="#DEE9FF"/>
</g>
<path opacity="0.36" d="M58.8086 72.3994C59.909 72.3994 60.826 71.4837 60.826 70.3849C60.826 69.2861 59.909 68.3704 58.8086 68.3704C57.7082 68.3704 56.7913 69.2861 56.7913 70.3849C56.7913 71.5142 57.7082 72.3994 58.8086 72.3994Z" fill="#DEE9FF"/>
</g>
<path d="M80.51 71.7279H83.5972C83.5972 57.3518 71.8905 45.6617 57.4939 45.6617V48.7445C70.1788 48.7445 80.51 59.0611 80.51 71.7279Z" fill="#143066"/>
<path d="M73.6638 71.7279H76.7509C76.7509 61.1366 68.1008 52.4987 57.4944 52.4987V55.5815C66.3891 55.5815 73.6638 62.8458 73.6638 71.7279Z" fill="#143066"/>
<path d="M66.817 71.7279H69.9041C69.9041 64.8909 64.3412 59.3358 57.4944 59.3358V62.4185C62.6295 62.4185 66.817 66.6001 66.817 71.7279Z" fill="#143066"/>
<path d="M59.4812 71.7279C60.5816 71.7279 61.4986 70.8122 61.4986 69.7134C61.4986 68.6146 60.5816 67.6989 59.4812 67.6989C58.3808 67.6989 57.4639 68.6146 57.4639 69.7134C57.4639 70.8122 58.3808 71.7279 59.4812 71.7279Z" fill="#143066"/>
<path d="M45.8489 173.673H2.8732C1.28377 173.673 0 172.391 0 170.804V136.68C0 135.093 1.28377 133.811 2.8732 133.811H45.8489C47.4383 133.811 48.7221 135.093 48.7221 136.68V170.804C48.6915 172.391 47.4078 173.673 45.8489 173.673Z" fill="#DEE9FF"/>
<g opacity="0.36">
<g opacity="0.36">
<path opacity="0.36" d="M32.9195 154.413H17.1169V148.095C17.1169 143.761 20.6626 140.22 25.003 140.22C29.3433 140.22 32.889 143.761 32.889 148.095V154.413H32.9195ZM19.715 151.819H30.3214V148.095C30.3214 145.165 27.9373 142.784 25.003 142.784C22.0686 142.784 19.6845 145.165 19.6845 148.095V151.819H19.715Z" fill="#DEE9FF"/>
</g>
<path opacity="0.36" d="M34.8452 168.637H15.2219V151.3H34.8452V168.637ZM27.326 158.015C27.326 156.764 26.2868 155.726 25.0336 155.726C23.7804 155.726 22.7411 156.764 22.7411 158.015C22.7411 158.748 23.0774 159.388 23.597 159.785L23.1079 163.784H26.9898L26.5007 159.785C26.9898 159.388 27.326 158.748 27.326 158.015Z" fill="#DEE9FF"/>
</g>
<path d="M32.2469 150.629V147.424C32.2469 143.089 28.7013 139.549 24.3609 139.549C20.0206 139.549 16.4749 143.089 16.4749 147.424V150.629H14.5798V167.965H34.2032V150.629H32.2469ZM19.0425 147.424C19.0425 144.493 21.4266 142.113 24.3609 142.113C27.2953 142.113 29.6794 144.493 29.6794 147.424V150.629H19.0425V147.424ZM26.2866 163.143H22.4047L22.8938 159.144C22.3741 158.717 22.0379 158.076 22.0379 157.374C22.0379 156.123 23.0772 155.085 24.3304 155.085C25.5836 155.085 26.6228 156.123 26.6228 157.374C26.6228 158.076 26.2866 158.748 25.767 159.144L26.2866 163.143Z" fill="#143066"/>
<path d="M268.338 39.8624H225.393C223.804 39.8624 222.52 38.5804 222.52 36.9933V2.86912C222.52 1.28194 223.804 0 225.393 0H268.369C269.958 0 271.242 1.28194 271.242 2.86912V36.9933C271.212 38.5804 269.928 39.8624 268.338 39.8624Z" fill="#DEE9FF"/>
<g opacity="0.36">
<path opacity="0.36" d="M245.689 16.5126H240.034V31.0414H245.689V16.5126Z" fill="#DEE9FF"/>
<path opacity="0.36" d="M253.392 13.7962H247.737V31.0414H253.392V13.7962Z" fill="#DEE9FF"/>
<path opacity="0.36" d="M237.986 20.8468H232.332V31.0414H237.986V20.8468Z" fill="#DEE9FF"/>
<path opacity="0.36" d="M261.094 10.6523H255.439V31.0414H261.094V10.6523Z" fill="#DEE9FF"/>
</g>
<path d="M245.017 15.8412H239.362V30.3699H245.017V15.8412Z" fill="#143066"/>
<path d="M252.719 13.1247H247.064V30.3699H252.719V13.1247Z" fill="#143066"/>
<path d="M237.314 20.1754H231.659V30.3699H237.314V20.1754Z" fill="#143066"/>
<path d="M260.422 9.98085H254.767V30.3699H260.422V9.98085Z" fill="#143066"/>
<path d="M398.702 85.4935H355.726C354.137 85.4935 352.853 84.2116 352.853 82.6244V48.4697C352.853 46.8825 354.137 45.6006 355.726 45.6006H398.702C400.292 45.6006 401.575 46.8825 401.575 48.4697V82.5939C401.575 84.2116 400.292 85.4935 398.702 85.4935Z" fill="#DEE9FF"/>
<path opacity="0.36" d="M377.123 79.7248L373.852 77.3745C367.372 72.6741 364.193 64.6772 365.691 56.8024L366.363 53.2618C366.455 52.8039 366.853 52.4682 367.311 52.4682H388.463C388.921 52.4682 389.349 52.8039 389.41 53.2618L390.083 56.8024C391.581 64.6466 388.371 72.6741 381.922 77.3745L378.651 79.7248C378.223 80.0605 377.581 80.0605 377.123 79.7248ZM381.341 63.3342C381.341 61.4418 379.782 59.8851 377.887 59.8851C375.992 59.8851 374.433 61.4418 374.433 63.3342C374.433 64.4025 374.922 65.3792 375.717 66.0202L374.953 72.0636H380.791L380.027 66.0202C380.852 65.3792 381.341 64.433 381.341 63.3342Z" fill="#DEE9FF"/>
<path d="M376.45 79.0533L373.18 76.703C366.7 72.0026 363.521 64.0057 365.018 56.1309L365.691 52.5903C365.783 52.1324 366.18 51.7967 366.638 51.7967H387.79C388.249 51.7967 388.677 52.1324 388.738 52.5903L389.41 56.1309C390.908 63.9752 387.698 72.0026 381.249 76.703L377.978 79.0533C377.55 79.389 376.909 79.389 376.45 79.0533ZM380.668 62.6627C380.668 60.7703 379.109 59.2136 377.214 59.2136C375.319 59.2136 373.76 60.7703 373.76 62.6627C373.76 63.731 374.249 64.7077 375.044 65.3487L374.28 71.3921H380.118L379.354 65.3487C380.179 64.7077 380.668 63.7615 380.668 62.6627Z" fill="#143066"/>
<path d="M448 218.511H242.912C237.39 218.511 232.912 222.988 232.912 228.511V338.384C232.912 343.907 237.39 348.384 242.912 348.384H448C453.523 348.384 458 343.907 458 338.384V228.511C458 222.988 453.523 218.511 448 218.511Z" fill="#C7DAFF"/>
<path d="M305.781 290.757C299.577 296.282 291.415 299.609 282.49 299.609C273.565 299.609 265.404 296.251 259.229 290.757C259.291 277.968 269.683 267.621 282.49 267.621C295.328 267.621 305.72 277.968 305.781 290.757Z" fill="#143066"/>
<path d="M317.519 264.661C317.519 275.038 312.995 284.378 305.782 290.757C299.577 296.282 291.416 299.609 282.49 299.609C273.565 299.609 265.404 296.251 259.23 290.757C252.016 284.378 247.492 275.038 247.492 264.661C247.492 245.34 263.173 229.682 282.49 229.682C301.838 229.682 317.519 245.34 317.519 264.661Z" stroke="#143066" stroke-width="4" stroke-miterlimit="10"/>
<path d="M282.49 264.661C289.412 264.661 295.022 259.058 295.022 252.146C295.022 245.235 289.412 239.632 282.49 239.632C275.569 239.632 269.958 245.235 269.958 252.146C269.958 259.058 275.569 264.661 282.49 264.661Z" fill="#143066"/>
<path d="M432.355 239.632H331.824V250.437H432.355V239.632Z" fill="#143066"/>
<path d="M408.086 258.8H331.824V269.605H408.086V258.8Z" fill="#143066"/>
<path d="M422.605 277.968H331.824V288.773H422.605V277.968Z" fill="#143066"/>
<path d="M337.57 317.922H262.897V324.118H337.57V317.922Z" fill="#143066"/>
<path d="M319.322 326.53H262.897V332.726H319.322V326.53Z" fill="#143066"/>
<path d="M256.998 317.922H243.947V335.168H256.998V317.922Z" fill="#143066"/>
<path d="M447.118 317.922H382.135V324.118H447.118V317.922Z" fill="#143066"/>
<path d="M416.736 326.53H382.135V332.726H416.736V326.53Z" fill="#143066"/>
<path d="M376.205 317.922H363.154V335.168H376.205V317.922Z" fill="#143066"/>
<path d="M14.274 250.285L16.8721 254.344L19.8065 246.866C19.8065 246.866 17.8197 244.76 16.6887 243.325C15.9246 242.318 14.5797 239.785 14.0295 238.564C13.5405 237.465 11.7371 236.488 11.1563 235.939C10.4839 235.267 9.62802 236.427 10.2088 237.74C10.3922 238.137 10.9118 238.381 11.3397 239.205C11.4314 239.357 11.462 239.724 11.4008 239.785C11.2786 239.876 10.1782 238.9 9.38349 238.503C8.58877 238.106 6.38803 237.496 5.34878 236.58C4.30954 235.664 3.33143 236.977 3.78992 237.679C4.24841 238.381 5.50161 239.754 5.50161 239.754C5.50161 239.754 4.92086 240.182 4.95143 240.823C5.01256 241.83 6.26576 242.745 6.26576 242.745C6.26576 242.745 6.17406 243.6 6.47972 244.241C6.75482 244.882 7.36614 245.37 7.36614 245.37C7.36614 245.37 7.36614 246.408 7.79406 247.019C8.37481 247.904 9.13896 247.568 9.71971 248.667C10.4533 250.04 11.0035 249.827 11.951 249.949C12.8069 250.04 14.274 250.285 14.274 250.285Z" fill="#F7A890"/>
<path d="M10.698 250.253L14.5799 248.361C14.6716 248.33 14.6716 248.147 14.6105 247.964L8.19163 232.123C8.13049 231.94 7.97766 231.818 7.88597 231.848L3.729 233.222C3.6373 233.252 3.60674 233.435 3.69843 233.618L10.4229 250.009C10.4841 250.192 10.6063 250.314 10.698 250.253Z" fill="#0E1219"/>
<path d="M11.064 250.071L14.9153 248.178C15.007 248.148 15.007 247.965 14.9459 247.782L8.52703 232.002C8.46589 231.818 8.31306 231.696 8.22137 231.727L4.09497 233.1C4.00327 233.131 3.9727 233.314 4.0644 233.497L10.7583 249.827C10.85 250.01 10.9723 250.132 11.064 250.071Z" fill="#1B212D"/>
<path d="M10.7897 249.308L14.6716 247.415L8.34442 231.91L4.21802 233.283L10.7897 249.308Z" fill="#EBF2FF"/>
<path d="M44.6874 227.515L35.5787 262.829L16.9641 243.356L12.96 251.383C12.96 251.383 31.3912 279.128 33.0723 279.891C36.8014 281.601 39.5523 279.8 39.5523 279.8L44.6874 227.515Z" fill="#4C4D4F"/>
<path d="M37.4738 293.016C36.2511 303.577 36.8624 316.701 38.2073 318.044C39.5828 319.418 48.2024 318.869 48.2024 318.869L59.0533 218.236C59.0533 218.236 45.91 225.775 44.6873 227.484C43.9537 228.522 39.5522 275.008 37.4738 293.016Z" fill="#4C4D4F"/>
<path d="M49.8838 455.426L49.9143 468.612C49.9143 468.948 49.6392 469.253 49.2725 469.253H20.1737C20.1737 469.253 18.5537 465.071 22.9858 463.759C27.4178 462.446 33.5921 461.378 36.1902 459.303C38.7883 457.227 38.2993 455.548 38.8189 452.679C39.3691 449.841 49.8532 447.735 49.9755 451.031C50.0672 454.358 49.8532 453.229 49.8838 455.426Z" fill="#111929"/>
<path d="M74.0307 455.426L74.3364 468.154C74.3364 468.734 74.8866 469.253 75.4673 469.253H95.274C95.274 469.253 96.0076 465.59 91.759 463.301C88.6107 461.592 87.5103 460.554 86.7156 459.303C84.8511 456.342 85.6152 455.548 84.7594 452.679C83.9035 449.841 73.1749 447.735 73.4194 451.031C73.7251 454.358 73.7862 453.229 74.0307 455.426Z" fill="#111929"/>
<path d="M82.9561 303.241C82.9561 303.241 81.2444 320.486 81.6112 337.915C82.0085 357.144 82.0697 381.073 83.4757 398.624C83.9648 404.667 85.5236 454.48 85.5236 454.48H73.4501C73.4501 454.48 65.4418 408.208 64.6165 398.715C63.6384 387.361 60.429 365.507 60.429 365.507L50.6173 454.48H37.5657C37.5657 454.48 38.0547 412.969 38.5438 399.021C39.1245 382.294 38.6049 340.997 39.0634 326.988C39.5525 312.703 39.7664 304.737 39.7664 304.737L82.9561 303.241Z" fill="#262626"/>
<path d="M70.424 214.329L57.1584 219.243C57.1584 219.243 52.2373 225.744 50.6173 227.393C48.8751 229.163 46.2464 232.307 45.4822 235.786C43.4649 245.004 41.4781 269.086 40.8973 280.136C40.286 291.185 39.583 306.965 39.583 306.965L74.092 307.24L71.7995 215.031L70.424 214.329Z" fill="#EBF2FF"/>
<path d="M67.5507 321.31C74.7948 321.31 86.3487 319.54 86.3487 319.54C86.3487 319.54 84.2091 302.722 84.1174 297.167C83.7506 277.48 96.4966 229.102 92.9815 226.874C80.0827 218.755 71.7688 215.001 71.7688 215.001C71.7688 215.001 64.005 224.493 62.5073 227.942C61.1624 231.086 57.8307 253.795 56.9748 257.763C56.119 261.73 55.8133 290.544 57.739 306.019C58.7171 313.863 60.276 321.341 67.5507 321.31Z" fill="#4C4D4F"/>
<path d="M76.4149 328.086C76.9039 326.499 77.4847 325.828 77.7598 324.973C78.2794 323.477 78.0349 319.845 77.9737 319.387C77.9737 319.357 77.9737 319.326 77.9737 319.326L87.6937 318.563C87.6937 318.563 87.3881 323.63 87.6326 324.149C88.2439 325.431 88.4579 330.101 88.5801 331.505C88.7024 332.909 88.1216 337.03 87.8465 338.22C87.602 339.41 86.1654 339.868 86.196 338.556C86.2265 337.274 86.2265 336.297 86.2265 336.297C86.2265 336.297 85.982 339.471 85.7681 340.57C85.5541 341.669 83.5367 342.035 83.6284 340.601C83.7507 339.197 84.2703 335.168 84.2703 335.168C84.2703 335.168 83.6896 340.875 82.9866 342.371C82.7726 342.829 80.9081 343.042 80.9998 341.547C81.0915 340.021 81.6416 335.656 81.6416 335.656C81.6416 335.656 81.122 339.624 80.6941 340.326C80.2662 341.028 78.799 341.12 78.7684 340.082C78.7379 339.013 79.5937 333.886 79.4103 332.634C79.2269 331.383 79.1352 331.291 79.1352 331.291C79.1352 331.291 78.2488 332.146 77.9737 332.787C77.6986 333.428 78.5545 334.313 77.393 335.778C76.2315 337.243 75.5896 333.336 75.4673 331.902C75.3145 330.864 76.1092 329.002 76.4149 328.086Z" fill="#F7A890"/>
<path d="M92.9816 226.904C95.9159 228.98 97.1385 273.268 96.1604 277.724C95.1823 282.181 91.545 322.623 90.4446 324.118C89.3442 325.614 78.2182 325.126 77.3624 324.118C76.5371 323.111 79.8688 279.952 79.0435 277.724C78.2182 275.527 72.7163 239.083 74.3669 233.802C75.9869 228.522 80.4801 218.022 92.9816 226.904Z" fill="#4C4D4F"/>
<path d="M77.2707 319.387C77.4541 319.387 77.6069 319.235 77.6069 319.052C77.6986 317.526 79.502 281.692 79.3797 278.701C79.3492 277.968 79.013 275.771 78.4628 272.413C76.7511 261.608 73.5417 241.494 75.2839 234.688C77.4541 226.111 88.7023 227.24 88.8246 227.271C89.008 227.301 89.1914 227.148 89.1914 226.965C89.222 226.782 89.0691 226.599 88.8857 226.599C88.7635 226.599 76.9345 225.378 74.6115 234.535C72.8386 241.464 76.0481 261.669 77.7903 272.535C78.3099 275.74 78.6767 278.06 78.7073 278.731C78.8296 281.662 76.9345 318.624 76.9345 319.021C76.9039 319.204 77.0567 319.357 77.2707 319.387C77.2401 319.387 77.2707 319.387 77.2707 319.387Z" fill="#282829"/>
<path d="M55.5386 216.313L56.9752 221.38C56.9752 221.38 56.0276 225.592 57.128 225.897C62.5382 227.515 70.4242 214.329 70.4242 214.329L66.42 204.012L56.4861 204.928L55.5386 216.313Z" fill="#E58070"/>
<path d="M43.587 196.87C43.3731 197.297 45.1153 201.571 45.2682 204.348C45.4515 207.614 44.8402 209.629 44.9625 210.697C45.1153 212.009 47.1938 210.025 47.6523 211.185C49.0278 214.665 50.4338 217.412 51.4425 217.686C54.2545 218.48 59.9092 215 60.3677 213.383C60.8262 211.735 59.3591 206.607 59.3591 206.607C59.3591 206.607 70.0266 200.197 67.8564 197.267C65.7779 194.428 64.0662 198.03 64.0662 198.03C64.0662 198.03 61.5598 187.347 60.5206 186.889C59.4508 186.431 44.4734 195.039 43.587 196.87Z" fill="#F7A890"/>
<path d="M53.6738 193.238C53.6738 193.238 52.4818 197.725 56.8527 201.571C56.8527 201.571 59.0534 198.701 60.6429 200.808C62.2323 202.914 59.3591 206.607 59.3591 206.607C59.3591 206.607 63.4549 209.812 64.7998 209.842C66.1753 209.873 68.3761 209.14 68.3761 209.14C68.3761 209.14 71.3104 197.114 70.3017 192.017C69.3236 186.95 66.3587 181.121 61.9266 180.724C58.167 180.388 53.9184 183.104 53.9184 183.104C53.9184 183.104 46.9799 186.462 42.3339 185.882C37.6879 185.272 39.2467 198.091 43.5565 196.87C52.3901 194.337 53.6738 193.238 53.6738 193.238Z" fill="#171D28"/>
<path d="M47.0951 201.08C46.6808 201.16 46.4647 201.842 46.6125 202.603C46.7602 203.364 47.2159 203.917 47.6302 203.836C48.0445 203.756 48.2606 203.074 48.1128 202.313C47.965 201.552 47.5094 200.999 47.0951 201.08Z" fill="#171D28"/>
<path d="M48.9668 212.803L51.9928 211.185C51.9928 211.185 52.7875 213.596 50.0366 214.726L48.9668 212.803Z" fill="#EBF2FF"/>
<path d="M45.3905 200.075C45.3294 199.709 45.4516 199.373 45.6656 199.098C45.849 198.824 46.1546 198.61 46.4603 198.488C47.0716 198.244 47.8052 198.274 48.3248 198.763V198.824C48.0497 198.824 47.7746 198.824 47.4995 198.854C47.2244 198.885 46.9799 198.976 46.7048 199.068C46.2158 199.281 45.7573 199.617 45.4516 200.075H45.3905Z" fill="#171D28"/>
</g>
<defs>
<clipPath id="clip0">
<rect width="458" height="472" fill="white"/>
</clipPath>
</defs>
</svg>
